<?xml version="1.0" encoding="UTF-8" standalone="no"?>
<!-- Created with Inkscape (http://www.inkscape.org/) -->

<svg
   xmlns:dc="http://purl.org/dc/elements/1.1/"
   xmlns:cc="http://creativecommons.org/ns#"
   xmlns:rdf="http://www.w3.org/1999/02/22-rdf-syntax-ns#"
   xmlns:svg="http://www.w3.org/2000/svg"
   xmlns="http://www.w3.org/2000/svg"
   xmlns:sodipodi="http://sodipodi.sourceforge.net/DTD/sodipodi-0.dtd"
   xmlns:inkscape="http://www.inkscape.org/namespaces/inkscape"
   width="210mm"
   height="297mm"
   viewBox="0 0 210 297"
   version="1.1"
   id="svg4611"
   inkscape:version="0.92.3 (2405546, 2018-03-11)"
   sodipodi:docname="dtech-logo.svg">
  <defs
     id="defs4605" />
  <sodipodi:namedview
     id="base"
     pagecolor="#ffffff"
     bordercolor="#666666"
     borderopacity="1.0"
     inkscape:pageopacity="0.0"
     inkscape:pageshadow="2"
     inkscape:zoom="0.43740881"
     inkscape:cx="396.85039"
     inkscape:cy="561.25984"
     inkscape:document-units="mm"
     inkscape:current-layer="layer1"
     showgrid="false"
     inkscape:window-width="1024"
     inkscape:window-height="739"
     inkscape:window-x="0"
     inkscape:window-y="0"
     inkscape:window-maximized="1" />
  <metadata
     id="metadata4608">
    <rdf:RDF>
      <cc:Work
         rdf:about="">
        <dc:format>image/svg+xml</dc:format>
        <dc:type
           rdf:resource="http://purl.org/dc/dcmitype/StillImage" />
        <dc:title></dc:title>
      </cc:Work>
    </rdf:RDF>
  </metadata>
  <g
     inkscape:label="Layer 1"
     inkscape:groupmode="layer"
     id="layer1">
    <g
       id="logo"
       transform="translate(-5.9969416,32.972502)">
      <path
         style="fill:#ff6600;fill-opacity:1;stroke-width:0.26458332"
         d="m 78.191444,40.527496 c 2.77,0 5,2.23 5,5 V 185.5275 c 0,2.77 -2.23,5 -5,5 -2.77,0 -5,-2.23 -5,-5 V 45.527496 c 0,-2.77 2.23,-5 5,-5 z"
         id="l1"
         inkscape:connector-curvature="0" />
      <path
         transform="rotate(-60)"
         style="fill:#ff6600;fill-opacity:1;stroke-width:0.26458332"
         d="m -28.166042,69.779144 c 2.77,0 5,2.23 5,5 V 214.77914 c 0,2.77 -2.23,5 -5,5 -2.77,0 -5,-2.23 -5,-5 V 74.779144 c 0,-2.77 2.23,-5 5,-5 z"
         id="l2"
         inkscape:connector-curvature="0" />
      <path
         transform="rotate(60)"
         style="fill:#ff6600;fill-opacity:1;stroke-width:0.26458332"
         d="m 169.54619,-104.93145 c 2.77,0 5,2.23 5,5 v 140 c 0,2.77 -2.23,5 -5,5 -2.77,0 -5,-2.23 -5,-5 v -140 c 0,-2.77 2.23,-5 5,-5 z"
         id="l3"
         inkscape:connector-curvature="0" />
    </g>
  </g>
</svg>
